<svg width="1120" height="866" viewBox="0 0 1120 866" fill="none" xmlns="http://www.w3.org/2000/svg">
<g filter="url(#filter0_d_176_5)">
<path fill-rule="evenodd" clip-rule="evenodd" d="M841.248 436.785L780.751 332.002C754.812 349.73 746.527 384.737 762.497 412.397C778.466 440.056 812.925 450.386 841.248 436.785Z" fill="white"/>
</g>
<mask id="mask0_176_5" style="mask-type:alpha" maskUnits="userSpaceOnUse" x="754" y="332" width="88" height="111">
<path fill-rule="evenodd" clip-rule="evenodd" d="M841.248 436.785L780.751 332.002C754.812 349.73 746.527 384.737 762.497 412.397C778.466 440.056 812.925 450.385 841.248 436.785Z" fill="black"/>
</mask>
<g mask="url(#mask0_176_5)">
<circle cx="734.867" cy="340.862" r="54.7374" transform="rotate(120 734.867 340.862)" fill="#A3A3A3"/>
</g>
<path d="M528 50L496.823 -4L559.177 -3.99999L528 50Z" fill="white"/>
<mask id="mask1_176_5" style="mask-type:alpha" maskUnits="userSpaceOnUse" x="839" y="470" width="236" height="243">
<path d="M1075 595C1075 660.17 1022.17 713 957 713C891.83 713 839 660.17 839 595C839 529.83 888.83 470 954 470C1019.17 470 1075 529.83 1075 595Z" fill="#D9D9D9"/>
</mask>
<g mask="url(#mask1_176_5)">
<path d="M1061.5 652L958 466.5C975.5 461.667 1011.2 452 1014 452C1017.5 452 1100 479.5 1100 481.5C1100 483.1 1084 658.833 1084 694L1061.5 652Z" fill="#D9D9D9" stroke="white" stroke-width="4"/>
</g>
<mask id="path-7-inside-1_176_5" fill="white">
<path fill-rule="evenodd" clip-rule="evenodd" d="M957 725L957 466C1024.06 471.101 1076.89 527.132 1076.89 595.5C1076.89 663.868 1024.06 719.899 957 725Z"/>
</mask>
<path d="M957 466L957.303 462.012L953 461.684L953 466L957 466ZM957 725L953 725L953 729.316L957.303 728.988L957 725ZM953 466L953 725L961 725L961 466L953 466ZM956.697 469.988C1021.69 474.933 1072.89 529.239 1072.89 595.5L1080.89 595.5C1080.89 525.024 1026.43 467.27 957.303 462.012L956.697 469.988ZM1072.89 595.5C1072.89 661.761 1021.69 716.067 956.697 721.012L957.303 728.988C1026.43 723.73 1080.89 665.976 1080.89 595.5L1072.89 595.5Z" fill="white" mask="url(#path-7-inside-1_176_5)"/>
<circle cx="957" cy="585" r="21" fill="white"/>
<circle cx="144.963" cy="631.778" r="4.22222" transform="rotate(-180 144.963 631.778)" fill="white"/>
<circle cx="144.963" cy="586.741" r="4.22222" transform="rotate(-180 144.963 586.741)" fill="white"/>
<circle cx="144.963" cy="609.259" r="4.22222" transform="rotate(-180 144.963 609.259)" fill="white"/>
<circle cx="144.963" cy="564.222" r="4.22222" transform="rotate(-180 144.963 564.222)" fill="white"/>
<circle cx="60.5186" cy="631.778" r="4.22222" transform="rotate(-180 60.5186 631.778)" fill="white"/>
<circle cx="60.5186" cy="586.741" r="4.22222" transform="rotate(-180 60.5186 586.741)" fill="white"/>
<circle cx="60.5186" cy="609.259" r="4.22222" transform="rotate(-180 60.5186 609.259)" fill="white"/>
<circle cx="60.5186" cy="564.222" r="4.22222" transform="rotate(-180 60.5186 564.222)" fill="white"/>
<circle cx="116.815" cy="631.778" r="4.22222" transform="rotate(-180 116.815 631.778)" fill="white"/>
<circle cx="116.815" cy="586.741" r="4.22222" transform="rotate(-180 116.815 586.741)" fill="white"/>
<circle cx="116.815" cy="609.259" r="4.22222" transform="rotate(-180 116.815 609.259)" fill="white"/>
<circle cx="116.815" cy="564.222" r="4.22222" transform="rotate(-180 116.815 564.222)" fill="white"/>
<circle cx="32.3704" cy="631.778" r="4.22222" transform="rotate(-180 32.3704 631.778)" fill="white"/>
<circle cx="32.3704" cy="586.741" r="4.22222" transform="rotate(-180 32.3704 586.741)" fill="white"/>
<circle cx="32.3704" cy="609.259" r="4.22222" transform="rotate(-180 32.3704 609.259)" fill="white"/>
<circle cx="32.3704" cy="564.222" r="4.22222" transform="rotate(-180 32.3704 564.222)" fill="white"/>
<circle cx="88.6667" cy="631.778" r="4.22222" transform="rotate(-180 88.6667 631.778)" fill="white"/>
<circle cx="88.6667" cy="586.741" r="4.22222" transform="rotate(-180 88.6667 586.741)" fill="white"/>
<circle cx="88.6667" cy="609.259" r="4.22222" transform="rotate(-180 88.6667 609.259)" fill="white"/>
<circle cx="88.6667" cy="564.222" r="4.22222" transform="rotate(-180 88.6667 564.222)" fill="white"/>
<circle cx="4.22224" cy="631.778" r="4.22222" transform="rotate(-180 4.22224 631.778)" fill="white"/>
<circle cx="4.22224" cy="586.741" r="4.22222" transform="rotate(-180 4.22224 586.741)" fill="white"/>
<circle cx="4.22224" cy="609.259" r="4.22222" transform="rotate(-180 4.22224 609.259)" fill="white"/>
<circle cx="4.22224" cy="564.222" r="4.22222" transform="rotate(-180 4.22224 564.222)" fill="white"/>
<rect x="499" y="700" width="31" height="31" fill="white"/>
<rect x="650" y="829" width="31" height="31" stroke="white" stroke-width="11"/>
<rect x="583" y="638" width="23" height="20" fill="white"/>
<rect x="512" y="599" width="18" height="16" fill="white"/>
<path d="M1099.69 47.2501L858.5 465L617.312 47.25L1099.69 47.2501Z" stroke="white" stroke-width="2"/>
<path d="M898.985 -3.24997L698.5 344L498.015 -3.25001L898.985 -3.24997Z" fill="black" stroke="white" stroke-width="3"/>
<path d="M1127.69 -2.74994L886.5 415L645.312 -2.74998L1127.69 -2.74994Z" fill="black" stroke="white" stroke-width="2"/>
<path d="M598 169.75L581 139.75L671.936 44L680.452 58.75L688.968 73.5M598 169.75L688.968 73.5M598 169.75L615 198.25L706 103L688.968 73.5" stroke="white" stroke-width="3"/>
<defs>
<filter id="filter0_d_176_5" x="704.358" y="282.002" width="186.89" height="210.742" filterUnits="userSpaceOnUse" color-interpolation-filters="sRGB">
<feFlood flood-opacity="0" result="BackgroundImageFix"/>
<feColorMatrix in="SourceAlpha" type="matrix" values="0 0 0 0 0 0 0 0 0 0 0 0 0 0 0 0 0 0 127 0" result="hardAlpha"/>
<feOffset/>
<feGaussianBlur stdDeviation="25"/>
<feComposite in2="hardAlpha" operator="out"/>
<feColorMatrix type="matrix" values="0 0 0 0 1 0 0 0 0 1 0 0 0 0 1 0 0 0 0.75 0"/>
<feBlend mode="normal" in2="BackgroundImageFix" result="effect1_dropShadow_176_5"/>
<feBlend mode="normal" in="SourceGraphic" in2="effect1_dropShadow_176_5" result="shape"/>
</filter>
</defs>
</svg>
